<svg width="80" height="11" viewBox="0 0 80 11" fill="none" xmlns="http://www.w3.org/2000/svg">
<path d="M1 7.56572C1 7.56572 3 6.36572 5 6.36572C7.91904 6.36572 10.081 8.76572 13 8.76572C15 8.76572 17 7.56572 17 7.56572" stroke="#5D4B4B" stroke-width="2" stroke-linecap="round" stroke-linejoin="round"/>
<path d="M1 2.76567C1 2.76567 3 1.56567 5 1.56567C7.91904 1.56567 10.081 3.96567 13 3.96567C15 3.96567 17 2.76567 17 2.76567" stroke="#5D4B4B" stroke-width="2" stroke-linecap="round" stroke-linejoin="round"/>
<path d="M63 8.56572C63 8.56572 65 7.36572 67 7.36572C69.919 7.36572 72.081 9.76572 75 9.76572C77 9.76572 79 8.56572 79 8.56572" stroke="#5D4B4B" stroke-width="2" stroke-linecap="round" stroke-linejoin="round"/>
<path d="M63 3.76567C63 3.76567 65 2.56567 67 2.56567C69.919 2.56567 72.081 4.96567 75 4.96567C77 4.96567 79 3.76567 79 3.76567" stroke="#5D4B4B" stroke-width="2" stroke-linecap="round" stroke-linejoin="round"/>
<path d="M27.4229 10.2245C27.336 10.2245 27.2513 10.1978 27.1801 10.148C27.109 10.0981 27.0549 10.0276 27.0253 9.94589C26.9957 9.86423 26.992 9.77542 27.0146 9.69156C27.0373 9.6077 27.0853 9.53286 27.152 9.47723L32.8191 4.75225C32.8828 4.69878 32.961 4.66532 33.0437 4.65607C33.1264 4.64682 33.21 4.6622 33.284 4.70027L35.2929 5.7265L37.0871 3.99737C37.1659 3.92145 37.2711 3.87903 37.3805 3.87903H38.517L40.6236 0.214102C40.6571 0.155335 40.7042 0.105469 40.761 0.0686945C40.8178 0.0319202 40.8825 0.00931178 40.9499 0.00276918C41.0169 -0.00316248 41.0845 0.0067522 41.147 0.0317139C41.2096 0.0566756 41.2654 0.0959858 41.31 0.146475L45.2796 4.73281L46.9492 3.38916C47.034 3.32083 47.1419 3.28788 47.2504 3.29718C47.3589 3.30647 47.4596 3.35728 47.5316 3.43903L52.8876 9.52245C52.9259 9.56382 52.9555 9.61243 52.9747 9.66542C52.9939 9.71841 53.0023 9.7747 52.9995 9.83099C52.9966 9.88728 52.9825 9.94243 52.958 9.99318C52.9335 10.0439 52.8991 10.0893 52.8568 10.1266C52.8145 10.1638 52.7652 10.1922 52.7118 10.2102C52.6583 10.2281 52.6019 10.2352 52.5457 10.2309C52.4895 10.2267 52.4347 10.2113 52.3845 10.1856C52.3344 10.1599 52.2898 10.1244 52.2536 10.0812L47.1656 4.30296L45.4935 5.64873C45.4083 5.71739 45.2997 5.75029 45.1907 5.74052C45.0816 5.73074 44.9806 5.67905 44.909 5.59632L41.0585 1.15115L39.1256 4.51218C39.0885 4.57649 39.0351 4.62989 38.9708 4.66699C38.9064 4.70409 38.8335 4.72358 38.7592 4.72351H37.5487L35.6606 6.54351C35.5973 6.60462 35.5164 6.64444 35.4294 6.65739C35.3423 6.67035 35.2534 6.6558 35.175 6.61578L33.1462 5.57899L27.6934 10.1264C27.6175 10.1898 27.5218 10.2245 27.4229 10.2245V10.2245Z" fill="#5D4B4B"/>
<path d="M41.3768 9.6908C41.2821 9.69091 41.1901 9.65925 41.1156 9.60087C41.0411 9.54249 40.9883 9.46079 40.9657 9.36885C40.9432 9.27691 40.9521 9.18006 40.9912 9.09382C41.0302 9.00758 41.0971 8.93694 41.1811 8.89323L45.0155 6.89402L46.8435 3.51862C46.8694 3.46882 46.9049 3.42467 46.9481 3.38874C46.9912 3.35282 47.041 3.32585 47.0947 3.3094C47.1484 3.29296 47.2048 3.28736 47.2606 3.29295C47.3165 3.29853 47.3706 3.31518 47.42 3.34193C47.4693 3.36868 47.5129 3.40499 47.548 3.44874C47.5832 3.49249 47.6093 3.54281 47.6248 3.59675C47.6403 3.6507 47.6449 3.70719 47.6383 3.76293C47.6318 3.81868 47.6142 3.87255 47.5865 3.92142L45.6964 7.41052C45.6562 7.48456 45.5948 7.5449 45.5201 7.58381L41.5712 9.64303C41.5111 9.6743 41.4445 9.69068 41.3768 9.6908ZM34.0101 9.90889C33.9509 9.90919 33.8922 9.89703 33.838 9.87319C33.7837 9.84936 33.7351 9.81439 33.6953 9.77055C33.6554 9.72671 33.6252 9.67498 33.6066 9.61871C33.5881 9.56245 33.5815 9.50291 33.5875 9.44396L33.7933 7.36403L32.7121 5.27015C32.6607 5.17055 32.6509 5.05459 32.6849 4.94778C32.719 4.84097 32.7941 4.75206 32.8937 4.7006C32.9933 4.64915 33.1092 4.63937 33.216 4.67342C33.3228 4.70746 33.4117 4.78254 33.4632 4.88214L34.6019 7.08718C34.6393 7.15965 34.655 7.24141 34.6471 7.32261L34.5554 8.24697L37.2317 5.27775C37.2772 5.22718 37.3342 5.18833 37.3978 5.1645C37.4615 5.14066 37.53 5.13255 37.5975 5.14085C37.665 5.14915 37.7295 5.17361 37.7856 5.21216C37.8416 5.25071 37.8875 5.30221 37.9194 5.36229L38.872 7.16495L39.8505 4.98992L40.569 0.357934C40.5863 0.247125 40.6468 0.147691 40.7373 0.0815042C40.8278 0.0153179 40.9409 -0.0121978 41.0517 0.00500923C41.1625 0.0222162 41.262 0.0827369 41.3282 0.173258C41.3943 0.263778 41.4219 0.376883 41.4047 0.487692L40.6777 5.17589C40.6721 5.21342 40.6613 5.24998 40.6455 5.28451L39.2888 8.30107C39.2563 8.37323 39.2042 8.43481 39.1385 8.47882C39.0727 8.52283 38.9959 8.5475 38.9168 8.55002C38.8374 8.5546 38.7583 8.53573 38.6895 8.49575C38.6207 8.45578 38.5651 8.39646 38.5297 8.32517L37.4557 6.29173L34.3242 9.76941C34.2845 9.81335 34.2361 9.84848 34.182 9.87251C34.1279 9.89653 34.0693 9.90893 34.0101 9.90889Z" fill="#5D4B4B"/>
<path d="M42.6591 7.77571C42.5713 7.77582 42.4856 7.74857 42.414 7.69777C42.3424 7.64696 42.2884 7.57511 42.2595 7.49219C42.2306 7.40928 42.2282 7.31942 42.2527 7.2351C42.2772 7.15078 42.3274 7.07618 42.3962 7.02167L44.966 4.98612C45.0096 4.95165 45.0596 4.92611 45.1131 4.91095C45.1665 4.89579 45.2225 4.89131 45.2777 4.89776C45.3329 4.90422 45.3863 4.92149 45.4348 4.94858C45.4833 4.97567 45.526 5.01205 45.5605 5.05565C45.595 5.09925 45.6205 5.14921 45.6357 5.20268C45.6508 5.25615 45.6553 5.31208 45.6489 5.36729C45.6424 5.42249 45.6251 5.47588 45.598 5.52441C45.571 5.57294 45.5346 5.61566 45.491 5.65013L42.9229 7.68568C42.8477 7.74464 42.7547 7.77638 42.6591 7.77571Z" fill="#5D4B4B"/>
</svg>
