<svg width="1440" height="498" viewBox="0 0 1440 498" fill="none" xmlns="http://www.w3.org/2000/svg">
<path d="M989.965 497L1440 497.359V228.859C1399.52 225.193 1306.27 220.059 1257.1 228.859C1207.93 237.659 1197.96 307.526 1199.13 341.359C1200.8 353.026 1179.44 380.059 1080.69 394.859C981.948 409.659 979.137 469 989.965 497Z" fill="#FFCECC"/>
<path d="M395.995 0.358903L0 0L0 268.147C35.6175 271.809 117.67 276.936 160.938 268.147C204.207 259.359 212.972 189.584 211.946 155.795C210.48 144.144 229.271 117.146 316.16 102.365C403.049 87.5848 405.522 28.3221 395.995 0.358903Z" fill="#FFCECC"/>
</svg>
