<svg width="80" height="16" viewBox="0 0 80 16" fill="none" xmlns="http://www.w3.org/2000/svg">
<path d="M1 11C1 11 3 9.8 5 9.8C7.91904 9.8 10.081 12.2 13 12.2C15 12.2 17 11 17 11" stroke="#5D4B4B" stroke-width="2" stroke-linecap="round" stroke-linejoin="round"/>
<path d="M1 6.2C1 6.2 3 5 5 5C7.91904 5 10.081 7.4 13 7.4C15 7.4 17 6.2 17 6.2" stroke="#5D4B4B" stroke-width="2" stroke-linecap="round" stroke-linejoin="round"/>
<path d="M63 11C63 11 65 9.8 67 9.8C69.919 9.8 72.081 12.2 75 12.2C77 12.2 79 11 79 11" stroke="#5D4B4B" stroke-width="2" stroke-linecap="round" stroke-linejoin="round"/>
<path d="M63 6.2C63 6.2 65 5 67 5C69.919 5 72.081 7.4 75 7.4C77 7.4 79 6.2 79 6.2" stroke="#5D4B4B" stroke-width="2" stroke-linecap="round" stroke-linejoin="round"/>
<path d="M47 4.5C47.8284 4.5 47.9999 5.17157 47.9999 6H48.4999H49.4999V2C49.4999 1.17157 48.8283 0.5 47.9999 0.5H31.9999C31.1714 0.5 30.4999 1.17157 30.4999 2V6H31.4999H32C32 5.17157 32.1714 4.5 32.9999 4.5M47 4.5H41.9999M47 4.5C47.2761 4.5 47.4999 4.72386 47.4999 5V6H41.4999V5C41.4999 4.72386 41.7237 4.5 41.9999 4.5M41.9999 4.5C41.1715 4.5 41 5.17157 41 6H40.4999H39.4999H39C39 5.17157 38.8283 4.5 37.9999 4.5M37.9999 4.5H32.9999M37.9999 4.5C38.276 4.5 38.4999 4.72386 38.4999 5V6H32.4999V5C32.4999 4.72386 32.7237 4.5 32.9999 4.5M51.4999 14V15.5H50.3089L49.4472 13.7764L49.309 13.5H49H31H30.691L30.5528 13.7764L29.691 15.5H28.5V14L28.4999 12V8C28.4999 7.34689 28.9173 6.79127 29.4999 6.58535V7H29.9999H31.9999H38.9999H40.9999H47.9999H49.9999V6.5C50.8283 6.5 51.4999 7.17157 51.4999 8V12V14Z" stroke="#5D4B4B"/>
<path d="M52 11.5H28C27.7239 11.5 27.5 11.7239 27.5 12V13C27.5 13.2761 27.7239 13.5 28 13.5H52C52.2761 13.5 52.5 13.2761 52.5 13V12C52.5 11.7239 52.2761 11.5 52 11.5Z" fill="white" stroke="#5D4B4B"/>
</svg>
