<svg width="40" height="39" viewBox="0 0 40 39" fill="none" xmlns="http://www.w3.org/2000/svg">
<path d="M27.9167 36.6667L26.6667 35H27.8417L38.9342 23.925C40.025 22.8333 40.025 21.3167 38.9342 20.2258C37.875 19.1667 36.3167 19.1667 35.2417 20.2417L30.4833 25H24.5167L27.2333 14.1333L38.8417 17.3425L39.0675 16.5425C40.0175 13.1092 39.6508 9.6425 38.0433 6.78417C36.66 4.32583 34.4267 2.4425 31.66 1.35C31.6583 1.31667 31.6667 1.28333 31.6667 1.25C31.6667 0.558333 31.1083 0 30.4167 0C29.9417 0 29.5417 0.266667 29.3242 0.65C28.3 0.424167 27.25 0.316667 26.1908 0.316667C20.0242 0.316667 14.8742 3.97583 13.3658 9.43333L13.14 10.2333L25.6317 13.6917L22.7992 25H19.6917L13.8583 30H2.5C1.11667 30 0 31.1167 0 32.5C0 33.6167 0.741667 34.5583 1.75833 34.8758L0.416667 36.6667H0V38.3333H40V36.6667H27.9167ZM33.3092 5.76667C33.2333 5.0175 33.1008 4.38333 32.9333 3.83417C34.4758 4.78417 35.7258 6.0675 36.5925 7.60083C37.8592 9.85083 38.2258 12.5508 37.6583 15.2842L32.4417 13.8433C33.225 10.7425 33.5333 7.9675 33.3092 5.76667ZM15.225 9.08333C16.7583 4.89167 20.9167 2.10833 25.875 1.99167C23.6833 3.61667 21.65 6.7 20.4408 10.525L15.225 9.08333ZM22.05 10.9667C23.85 5.325 27.5167 1.84167 29.7758 2.46667C31.0758 2.82583 31.5175 4.55 31.6508 5.93333C31.8508 7.9 31.5592 10.5342 30.8342 13.4L22.05 10.9667ZM24.1 26.6667H28.8167L25.4833 30H23.2667L24.1 26.6667ZM20.3083 26.6667H22.3825L21.5492 30H16.4167L20.3083 26.6667ZM1.66667 32.5C1.66667 32.0417 2.04167 31.6667 2.5 31.6667H26.175L36.425 21.425C36.5758 21.2675 36.8167 21.0833 37.1 21.0833C37.375 21.0833 37.6083 21.2583 37.7592 21.4092C38.2 21.85 38.2 22.3 37.7592 22.7425L27.15 33.3333H2.5C2.04167 33.3333 1.66667 32.9583 1.66667 32.5ZM19.8825 36.6667H2.5L3.75 35H20.2992L19.8825 36.6667ZM21.6 36.6667L22.0167 35H24.5833L25.8333 36.6667H21.6Z" fill="#332929"/>
</svg>
