<svg width="50" height="50" viewBox="0 0 50 50" fill="none" xmlns="http://www.w3.org/2000/svg">
<path d="M43.3465 31.6832L33.4951 37.5198L29.7426 35.1486H34.4604C35.1825 35.1486 35.8751 34.8617 36.3857 34.3511C36.8963 33.8405 37.1832 33.1479 37.1832 32.4258C37.1832 31.7037 36.8963 31.0111 36.3857 30.5005C35.8751 29.9899 35.1825 29.703 34.4604 29.703H26.3564C25.4244 29.6975 24.4994 29.8654 23.6287 30.1981L17.3267 33.0594V32.4258C17.3267 32.2288 17.2485 32.04 17.1092 31.9007C16.97 31.7614 16.7811 31.6832 16.5842 31.6832H11.1386C10.9417 31.6832 10.7528 31.7614 10.6135 31.9007C10.4743 32.04 10.396 32.2288 10.396 32.4258V44.802C10.396 44.999 10.4743 45.1878 10.6135 45.3271C10.7528 45.4664 10.9417 45.5446 11.1386 45.5446H16.5842C16.7811 45.5446 16.97 45.4664 17.1092 45.3271C17.2485 45.1878 17.3267 44.999 17.3267 44.802V44.0594H32.7178C33.6919 44.0611 34.6416 43.7543 35.4307 43.1832L45.9554 35.6436C46.3954 35.2643 46.6823 34.7378 46.7625 34.1625C46.8426 33.5871 46.7106 33.0023 46.391 32.5172C46.0715 32.032 45.5862 31.6799 45.026 31.5264C44.4657 31.3729 43.8687 31.4287 43.3465 31.6832ZM15.8416 44.0594H11.8812V33.1684H15.8416V44.0594ZM45.0941 34.4604L34.5644 41.9802C34.0269 42.368 33.3806 42.5759 32.7178 42.5743H17.3267V34.6882L24.198 31.5842C24.8871 31.3207 25.6187 31.1865 26.3564 31.1882H34.4604C34.7886 31.1882 35.1034 31.3185 35.3355 31.5506C35.5676 31.7827 35.698 32.0975 35.698 32.4258C35.698 32.754 35.5676 33.0688 35.3355 33.3009C35.1034 33.533 34.7886 33.6634 34.4604 33.6634H27.1782C27.0171 33.6632 26.8602 33.7155 26.7314 33.8122C26.6025 33.909 26.5086 34.0451 26.4639 34.1999C26.4192 34.3548 26.4261 34.5199 26.4835 34.6705C26.5409 34.8211 26.6457 34.9489 26.7822 35.0347L33.0842 38.9951C33.2011 39.0669 33.3356 39.1049 33.4728 39.1049C33.61 39.1049 33.7445 39.0669 33.8614 38.9951L44.1089 32.9109C44.3096 32.7933 44.5478 32.7574 44.7743 32.8107C45.0007 32.8639 45.198 33.0022 45.3252 33.1969C45.4525 33.3916 45.5 33.6278 45.4579 33.8566C45.4158 34.0854 45.2873 34.2892 45.099 34.4258L45.0941 34.4604Z" fill="#191010"/>
<path d="M46.7822 25.7426H45.0495C44.9244 21.192 43.1768 16.8361 40.1221 13.4609C37.0673 10.0857 32.9067 7.9136 28.3911 7.33669C28.8052 6.87368 29.0764 6.30072 29.172 5.68696C29.2677 5.0732 29.1836 4.44488 28.93 3.87784C28.6764 3.31081 28.2641 2.82929 27.7429 2.49142C27.2216 2.15354 26.6137 1.97375 25.9926 1.97375C25.3714 1.97375 24.7635 2.15354 24.2423 2.49142C23.7211 2.82929 23.3087 3.31081 23.0551 3.87784C22.8015 4.44488 22.7175 5.0732 22.8131 5.68696C22.9087 6.30072 23.18 6.87368 23.5941 7.33669C19.0772 7.91154 14.9148 10.0828 11.8588 13.4584C8.80291 16.8339 7.05494 21.191 6.93069 25.7426H4.70297C4.50603 25.7426 4.31715 25.8209 4.17789 25.9601C4.03863 26.0994 3.9604 26.2883 3.9604 26.4852C3.9604 26.6821 4.03863 26.871 4.17789 27.0103C4.31715 27.1495 4.50603 27.2278 4.70297 27.2278H46.7822C46.9791 27.2278 47.168 27.1495 47.3073 27.0103C47.4465 26.871 47.5248 26.6821 47.5248 26.4852C47.5248 26.2883 47.4465 26.0994 47.3073 25.9601C47.168 25.8209 46.9791 25.7426 46.7822 25.7426ZM25.9901 3.4654C26.3328 3.4654 26.6678 3.56702 26.9527 3.75741C27.2377 3.9478 27.4597 4.2184 27.5909 4.53501C27.722 4.85161 27.7563 5.2 27.6895 5.5361C27.6226 5.87221 27.4576 6.18094 27.2153 6.42326C26.973 6.66558 26.6642 6.8306 26.3281 6.89746C25.992 6.96431 25.6436 6.93 25.327 6.79886C25.0104 6.66771 24.7398 6.44563 24.5494 6.1607C24.359 5.87576 24.2574 5.54076 24.2574 5.19807C24.2574 4.73854 24.44 4.29783 24.7649 3.97289C25.0899 3.64795 25.5306 3.4654 25.9901 3.4654ZM25.9901 8.66342C30.5654 8.66536 34.96 10.4501 38.2411 13.6388C41.5222 16.8275 43.4317 21.1692 43.5644 25.7426H8.41584C8.54848 21.1692 10.458 16.8275 13.7391 13.6388C17.0202 10.4501 21.4148 8.66536 25.9901 8.66342Z" fill="#191010"/>
<path d="M22 12.1831C19.9601 12.7608 18.0706 13.7762 16.4633 15.1587C14.8559 16.5412 13.5693 18.2575 12.6931 20.1881C12.6438 20.2781 12.6137 20.3772 12.6047 20.4794C12.5956 20.5816 12.6078 20.6845 12.6406 20.7817C12.6733 20.8789 12.7258 20.9683 12.7948 21.0442C12.8638 21.1201 12.9477 21.1809 13.0414 21.2228C13.135 21.2646 13.2363 21.2866 13.3389 21.2874C13.4415 21.2881 13.5431 21.2676 13.6373 21.2272C13.7316 21.1867 13.8164 21.1271 13.8865 21.0523C13.9566 20.9774 14.0104 20.8888 14.0446 20.7921C14.8334 19.0602 15.99 17.5209 17.434 16.2813C18.878 15.0416 20.5746 14.1314 22.4059 13.6138C22.4999 13.5872 22.5877 13.5423 22.6642 13.4817C22.7408 13.4211 22.8047 13.3461 22.8523 13.2608C22.8999 13.1755 22.9302 13.0817 22.9415 12.9847C22.9529 12.8877 22.945 12.7895 22.9183 12.6955C22.8917 12.6016 22.8468 12.5138 22.7862 12.4372C22.7256 12.3606 22.6505 12.2967 22.5653 12.2491C22.48 12.2016 22.3862 12.1712 22.2892 12.1599C22.1922 12.1486 22.0939 12.1565 22 12.1831Z" fill="#191010"/>
</svg>
